<?xml version="1.0" encoding="utf-8"?>
<!-- Uploaded to: SVG Repo, www.svgrepo.com, Generator: SVG Repo Mixer Tools -->
<svg fill="#000000" width="800px" height="800px" viewBox="0 0 32 32" version="1.1" xmlns="http://www.w3.org/2000/svg">
<title>bookmark-filled</title>
<path d="M26 0.75h-20c-0.69 0-1.25 0.56-1.25 1.25v0 28.178c0 0.496 0.289 0.924 0.707 1.126l0.007 0.003c0.157 0.076 0.341 0.121 0.536 0.121 0.301 0 0.577-0.107 0.793-0.285l-0.002 0.002 9.218-7.537 9.21 7.369c0.212 0.171 0.484 0.274 0.781 0.274 0.691 0 1.25-0.56 1.25-1.25v0-28c-0-0.69-0.56-1.25-1.25-1.25h-0z"></path>
</svg>