<svg width="220" height="220" viewBox="0 0 220 220" fill="none" xmlns="http://www.w3.org/2000/svg">
<path d="M110 220C170.751 220 220 170.751 220 110C220 49.2487 170.751 0 110 0C49.2487 0 0 49.2487 0 110C0 170.751 49.2487 220 110 220Z" stroke="white" stroke-width="0.0022"/>
<path fill-rule="evenodd" clip-rule="evenodd" d="M170.06 117.434C170.06 117.434 157.695 96.9633 139.043 79.4642C129.714 70.7136 118.763 62.5904 106.528 58.1947C100.409 55.999 93.8974 54.8002 87.263 55.0236C80.2814 55.2553 73.446 57.0855 67.2826 60.3732C65.9162 61.0951 64.1115 63.8107 64.2253 65.7916C64.3392 67.7724 65.046 68.4965 65.4134 68.9756C66.146 69.9359 66.4511 70.0498 66.7369 70.2646C67.1948 70.6012 67.675 70.9062 68.1742 71.1777C69.1431 71.732 70.357 72.3636 71.8265 73.1113C74.7828 74.598 78.7166 76.4865 82.6826 78.3578C87.1599 80.4719 88.6187 81.125 91.706 82.5429L66.2943 111.547C65.7709 112.106 65.3655 112.765 65.102 113.485C64.8386 114.204 64.7225 114.969 64.7608 115.735C64.7991 116.5 64.9909 117.25 65.3248 117.939C65.6587 118.629 66.1279 119.244 66.7045 119.748C67.2811 120.253 67.9533 120.636 68.6811 120.876C69.4089 121.115 70.1774 121.206 70.9409 121.142C71.7044 121.079 72.4473 120.862 73.1254 120.505C73.8035 120.149 74.4029 119.659 74.888 119.066L105.325 84.3412C105.911 83.6712 106.332 82.8736 106.556 82.012C106.779 81.1504 106.798 80.2486 106.611 79.3783C106.424 78.5081 106.037 77.6935 105.48 76.9993C104.923 76.3052 104.211 75.7507 103.402 75.3801C103.402 75.3801 95.4142 71.7277 87.5703 68.0281C86.597 67.5683 85.8945 67.2117 84.9427 66.7584C90.8617 66.0666 96.7291 66.8271 102.665 68.9584C112.675 72.5527 122.601 79.7177 131.222 87.8023C146.846 102.455 156.812 118.042 158.769 121.172L154.917 131.33C149.034 131.1 143.181 130.374 137.42 129.158C131.951 128.006 126.427 126.27 122.304 123.978C118.181 121.685 115.717 119.081 114.838 116.142C114.623 115.423 114.268 114.753 113.794 114.171C113.32 113.588 112.735 113.105 112.074 112.749C111.414 112.392 110.689 112.169 109.942 112.093C109.195 112.016 108.44 112.088 107.72 112.303C107.001 112.518 106.331 112.873 105.749 113.347C105.166 113.822 104.683 114.406 104.327 115.067C103.97 115.728 103.747 116.452 103.671 117.2C103.594 117.947 103.666 118.701 103.881 119.421C105.396 124.487 108.704 128.38 112.677 131.347C111.796 133.375 110.726 135.921 109.654 138.684C107.104 145.264 104.335 152.619 104.343 159.309C104.344 160.059 104.493 160.802 104.781 161.495C105.069 162.188 105.49 162.818 106.022 163.348C106.553 163.878 107.183 164.298 107.877 164.585C108.571 164.871 109.314 165.018 110.064 165.017C110.815 165.016 111.558 164.868 112.251 164.58C112.944 164.292 113.573 163.87 114.104 163.339C114.634 162.807 115.054 162.177 115.34 161.483C115.627 160.79 115.774 160.046 115.773 159.296C115.773 156.662 117.921 148.964 120.312 142.822C121.172 140.604 122.031 138.525 122.779 136.791C126.799 138.366 130.999 139.496 135.064 140.351C147.402 142.927 158.769 142.936 158.769 142.936C159.934 142.941 161.072 142.59 162.032 141.931C162.992 141.272 163.728 140.335 164.141 139.247L170.519 122.424C170.827 121.612 170.945 120.741 170.865 119.876C170.786 119.011 170.51 118.176 170.06 117.434Z" fill="#D58F77" stroke="white" stroke-width="0.0022"/>
</svg>
