<svg width="20" height="20" viewBox="0 0 20 20" fill="none" xmlns="http://www.w3.org/2000/svg">
<g clip-path="url(#clip0_4_30)">
<path fill-rule="evenodd" clip-rule="evenodd" d="M20 10.0001C20 15.5226 15.5125 20.0001 10 20.0001C4.4775 20.0001 0 15.5126 0 10.0001H2.5C2.5 14.1339 5.8575 17.5001 10 17.5001C14.1337 17.5001 17.5 14.1426 17.5 10.0001H20ZM5 4.99512C5 3.66904 5.52678 2.39727 6.46447 1.45958C7.40215 0.521901 8.67392 -0.00488281 10 -0.00488281C11.3261 -0.00488281 12.5979 0.521901 13.5355 1.45958C14.4732 2.39727 15 3.66904 15 4.99512V10.0051C15 11.3312 14.4732 12.603 13.5355 13.5407C12.5979 14.4783 11.3261 15.0051 10 15.0051C8.67392 15.0051 7.40215 14.4783 6.46447 13.5407C5.52678 12.603 5 11.3312 5 10.0051V4.99512ZM10 2.50012C9.33696 2.50012 8.70107 2.76351 8.23223 3.23235C7.76339 3.70119 7.5 4.33708 7.5 5.00012V10.0001C7.5 10.6632 7.76339 11.299 8.23223 11.7679C8.70107 12.2367 9.33696 12.5001 10 12.5001C10.663 12.5001 11.2989 12.2367 11.7678 11.7679C12.2366 11.299 12.5 10.6632 12.5 10.0001V5.00012C12.5 4.33708 12.2366 3.70119 11.7678 3.23235C11.2989 2.76351 10.663 2.50012 10 2.50012ZM7.5 6.25012H12.5V8.75012H7.5V6.25012Z" fill="black"/>
</g>
<defs>
<clipPath id="clip0_4_30">
<rect width="20" height="20" fill="white"/>
</clipPath>
</defs>
</svg>
