<svg width="21" height="21" viewBox="0 0 21 21" fill="none" xmlns="http://www.w3.org/2000/svg">
<path d="M4.69593 14.7353C4.78155 14.767 4.87105 14.7821 4.95918 14.7821C5.20455 14.7821 5.43889 14.6654 5.54601 14.4686C5.5735 14.4181 5.60179 14.367 5.63092 14.3154C5.78087 14.0496 5.64143 13.7337 5.31952 13.6098C4.9976 13.486 4.61511 13.6012 4.46516 13.867C4.43362 13.923 4.40288 13.9784 4.37308 14.0332C4.2275 14.3007 4.37205 14.615 4.69593 14.7353Z" fill="black"/>
<path d="M20.7342 0.504137C20.5696 0.387788 20.3451 0.347641 20.1371 0.397452C17.216 1.09624 14.0943 3.40964 11.9898 5.22729C9.48318 7.39227 7.01965 10.072 5.39983 12.3955C5.22265 12.6497 5.32849 12.9744 5.63626 13.1207C5.73737 13.1688 5.84765 13.1916 5.95647 13.1916C6.17895 13.1916 6.39536 13.0961 6.51431 12.9255C8.08555 10.6716 10.4799 8.06817 12.9193 5.96132C15.3165 3.89084 17.6195 2.41448 19.5245 1.71471C19.332 2.68924 19.0794 3.59197 18.7597 4.44949L16.1691 5.20985C15.9099 5.28589 15.738 5.4897 15.7414 5.71685C15.7449 5.944 15.9229 6.1442 16.1843 6.21488L17.7325 6.63358C17.5093 7.01529 17.2696 7.37905 17.0159 7.72138L13.874 7.45976C13.6025 7.43714 13.3432 7.55864 13.2274 7.76275C13.1115 7.96687 13.1643 8.20913 13.3591 8.36706L15.054 9.7413C14.6078 10.0884 14.1314 10.3978 13.63 10.6659L12.1012 9.68546C11.9073 9.56112 11.6445 9.53879 11.4241 9.62795C11.2036 9.71709 11.0638 9.90215 11.0638 10.1049V11.6343C10.1979 11.8452 9.26524 11.9715 8.2845 12.0105C7.92982 12.0246 7.65609 12.2735 7.67313 12.5664C7.69023 12.8594 7.99196 13.0855 8.34629 13.0713C9.61452 13.0209 10.8155 12.8369 11.9159 12.5243C12.1755 12.4506 12.3498 12.2489 12.3498 12.0222V11.1896L13.1931 11.7304C13.4007 11.8635 13.6854 11.8789 13.9122 11.7693C14.8298 11.3259 15.6787 10.7649 16.4352 10.1018C16.6752 9.89145 16.6674 9.5612 16.4177 9.35872L15.5659 8.66811L17.2823 8.81101C17.5211 8.83095 17.7539 8.73908 17.8853 8.57289C18.375 7.95317 18.8196 7.26394 19.2064 6.5244C19.2781 6.38739 19.2767 6.23177 19.2024 6.09569C19.1282 5.95962 18.9881 5.85559 18.8163 5.80915L18.3746 5.68969L19.4918 5.3618C19.6801 5.30652 19.8267 5.18202 19.8882 5.02497C20.3755 3.78179 20.724 2.45702 20.9537 0.974979C20.9813 0.797454 20.8987 0.620487 20.7342 0.504137Z" fill="black"/>
<path d="M7.55664 16.6443L7.43396 16.589C7.26154 16.5114 7.11599 16.3016 7.11599 16.211V15.9173C7.77909 15.5683 8.18762 15.07 8.18762 14.5083C8.18762 14.215 7.89975 13.9773 7.54462 13.9773C7.18949 13.9773 6.90162 14.215 6.90162 14.5083C6.90162 14.9077 5.96257 15.3719 4.7519 15.3719C3.54125 15.3719 2.60224 14.9077 2.60224 14.5083C2.60224 14.273 2.93226 14.0109 3.443 13.8404C3.77225 13.7305 3.9313 13.421 3.79826 13.1491C3.66522 12.8772 3.29048 12.7458 2.96117 12.8557C1.93114 13.1994 1.3162 13.8173 1.3162 14.5083C1.3162 15.07 1.72474 15.5683 2.3878 15.9173V16.211C2.3878 16.3016 2.24229 16.5114 2.06996 16.589L1.94712 16.6443C1.38378 16.8981 0.958984 17.4891 0.958984 18.019V19.2308C0.958984 19.8624 1.58115 20.3762 2.34591 20.3762H7.15795C7.92267 20.3762 8.54484 19.8624 8.54484 19.2308V18.019C8.54481 17.4891 8.12001 16.8981 7.55664 16.6443ZM7.2588 19.2308C7.2588 19.2752 7.21164 19.3142 7.15792 19.3142H2.34591C2.29215 19.3142 2.24499 19.2752 2.24499 19.2308V18.019C2.24499 17.8765 2.4114 17.645 2.56286 17.5767L2.6857 17.5214C3.20081 17.2894 3.59989 16.7984 3.66442 16.3389C4.00489 16.4006 4.37011 16.4339 4.75186 16.4339C5.13362 16.4339 5.49884 16.4006 5.83934 16.3389C5.90387 16.7984 6.30295 17.2894 6.81812 17.5214L6.94084 17.5767C7.0924 17.645 7.2588 17.8765 7.2588 18.019V19.2308Z" fill="black"/>
</svg>
