<?xml version="1.0" standalone="no"?>
<!DOCTYPE svg PUBLIC "-//W3C//DTD SVG 20010904//EN"
 "http://www.w3.org/TR/2001/REC-SVG-20010904/DTD/svg10.dtd">
<svg version="1.0" xmlns="http://www.w3.org/2000/svg"
 width="20.000000pt" height="20.000000pt" viewBox="0 0 20.000000 20.000000"
 preserveAspectRatio="xMidYMid meet">

<g transform="translate(0.000000,20.000000) scale(0.100000,-0.100000)"
fill="#000000" stroke="none">
<path d="M25 174 c-53 -57 -13 -138 65 -133 30 2 45 -2 63 -19 20 -19 26 -20
35 -9 9 11 6 19 -12 36 -20 18 -23 29 -19 61 11 78 -79 121 -132 64z m89 -20
c19 -18 20 -38 6 -65 -21 -38 -90 -14 -90 31 0 24 26 50 50 50 10 0 26 -7 34
-16z"/>
</g>
</svg>
